<svg width="131" height="60" viewBox="0 0 131 60" fill="none" xmlns="http://www.w3.org/2000/svg">
<g id="Group 2087327368">
<g id="Mask group">
<mask id="mask0_5392_17029" style="mask-type:alpha" maskUnits="userSpaceOnUse" x="0" y="0" width="61" height="60">
<rect id="Rectangle 34624350" x="0.216797" width="59.9985" height="60" fill="#D9D9D9"/>
</mask>
<g mask="url(#mask0_5392_17029)">
<path id="Vector" d="M50.5223 14.7146C47.8356 14.7324 44.7499 16.9196 41.8889 20.2595L60.7842 -52.2617L47.6228 -52.4893L34.3668 36.0992C33.5215 41.7505 35.4899 44.9367 38.481 44.8835C41.4721 44.8303 46.009 41.5702 49.7154 35.8184C55.6178 26.6616 57.6867 14.6673 50.5223 14.7146ZM26.7058 37.7337L19.4438 17.3541L15.5306 17.3836L18.4123 37.8549L5.18885 17.4605L-0.973633 17.5048L20.1295 44.7771L21.8763 44.7476L21.5748 33.8617L26.6969 44.6648L28.4349 44.6352L35.6525 17.2329L29.6526 17.2772L26.7058 37.7337ZM39.7726 41.65C37.8899 41.6795 36.8761 39.5189 37.7865 36.0194C38.9658 31.4912 42.483 27.0222 45.6337 26.9897C48.7755 26.9542 48.6513 31.5385 46.3134 35.9011C44.4898 39.3031 41.682 41.6204 39.7726 41.65Z" fill="white"/>
</g>
</g>
<g id="Group 2087327364">
<rect id="Rectangle 372" width="77.3979" height="28.8" rx="5.39992" transform="matrix(0.990268 -0.139176 0.139171 0.990268 49.998 21.7275)" fill="black"/>
<g id="Group 926">
<path id="Vector 10" d="M81.8661 21.4705C80.2769 21.6997 76.7159 22.2144 75.185 22.4396C75.158 23.9233 73.7915 24.1381 70.0497 24.6809L70.979 31.0882L73.9583 30.6561L75.8219 43.5047L84.8715 42.1921L81.8661 21.4705Z" fill="white"/>
<path id="Vector 12" d="M120.52 15.8646C118.931 16.0938 115.37 16.6085 113.839 16.8336C113.812 18.3173 112.446 18.5322 108.704 19.0749L109.633 25.4823L112.613 25.0501L114.476 37.8987L123.526 36.5861L120.52 15.8646Z" fill="white"/>
<path id="Vector 11" d="M67.0282 23.6224C65.439 23.8516 61.878 24.3663 60.3471 24.5915C60.3201 26.0751 58.9536 26.29 55.2118 26.8327L56.1411 33.2401L59.1204 32.808L60.984 45.6566L70.0337 44.3439L67.0282 23.6224Z" fill="white"/>
<path id="Vector 13" d="M105.79 18.0013C104.201 18.2305 100.64 18.7452 99.1088 18.9704C99.0818 20.454 97.7153 20.6689 93.9735 21.2116L94.9029 27.619L97.8822 27.1869L99.7457 40.0355L108.795 38.7228L105.79 18.0013Z" fill="white"/>
<rect id="Rectangle 371" width="8.66609" height="8.30386" rx="4.15193" transform="matrix(0.989644 -0.143544 0.143539 0.989645 86.8838 34.0781)" fill="white"/>
</g>
</g>
</g>
</svg>
